HIERARCHY
ROOT Hips
{
	OFFSET 0.000000 0.000000 0.000000
	CHANNELS 6 Xposition Yposition Zposition Xrotation Yrotation Zrotation
	JOINT LeftUpLeg_virtual
	{
		OFFSET 0.000000 0.000000 0.000000
		CHANNELS 3 Xrotation Yrotation Zrotation
		JOINT LeftUpLeg
		{
			OFFSET 15.427100 -6.655098 0.678600
			CHANNELS 3 Xrotation Yrotation Zrotation
			JOINT LeftLeg
			{
				OFFSET 4.081073 -39.591068 13.024000
				CHANNELS 3 Xrotation Yrotation Zrotation
				JOINT LeftFoot
				{
					OFFSET -4.081074 -37.707932 -15.979700
					CHANNELS 3 Xrotation Yrotation Zrotation
					JOINT LeftToeBase
					{
						OFFSET 5.346399 -15.068900 20.645000
						CHANNELS 3 Xrotation Yrotation Zrotation
						JOINT LeftToe_End
						{
							OFFSET 2.754700 0.931300 11.300900
							CHANNELS 3 Xrotation Yrotation Zrotation
							End Site
							{
								OFFSET 0 0 0
							}
						}
					}
				}
			}
		}
	}
	JOINT RightUpLeg_virtual
	{
		OFFSET 0.000000 0.000000 0.000000
		CHANNELS 3 Xrotation Yrotation Zrotation
		JOINT RightUpLeg
		{
			OFFSET -15.569500 -6.655098 0.678600
			CHANNELS 3 Xrotation Yrotation Zrotation
			JOINT RightLeg
			{
				OFFSET -4.081825 -39.591045 13.023800
				CHANNELS 3 Xrotation Yrotation Zrotation
				JOINT RightFoot
				{
					OFFSET 4.081824 -37.707954 -15.979600
					CHANNELS 3 Xrotation Yrotation Zrotation
					JOINT RightToeBase
					{
						OFFSET -5.346400 -15.068900 20.645000
						CHANNELS 3 Xrotation Yrotation Zrotation
						JOINT RightToe_End
						{
							OFFSET -2.754700 0.931300 11.300900
							CHANNELS 3 Xrotation Yrotation Zrotation
							End Site
							{
								OFFSET 0 0 0
							}
						}
					}
				}
			}
		}
	}
	JOINT Spine_virtual
	{
		OFFSET 0.000000 0.000000 0.000000
		CHANNELS 3 Xrotation Yrotation Zrotation
		JOINT Spine
		{
			OFFSET -0.279200 12.230698 -2.892100
			CHANNELS 3 Xrotation Yrotation Zrotation
			JOINT Spine1
			{
				OFFSET -0.232667 10.192268 -1.242267
				CHANNELS 3 Xrotation Yrotation Zrotation
				JOINT Spine1_split
				{
					OFFSET -0.232667 10.192268 -1.242267
					CHANNELS 3 Xrotation Yrotation Zrotation
					JOINT Spine2
					{
						OFFSET -0.232667 10.192268 -1.242267
						CHANNELS 3 Xrotation Yrotation Zrotation
						JOINT Neck_virtual
						{
							OFFSET 0.000000 0.000000 0.000000
							CHANNELS 3 Xrotation Yrotation Zrotation
							JOINT Neck
							{
								OFFSET -0.418800 17.814194 8.416900
								CHANNELS 3 Xrotation Yrotation Zrotation
								JOINT Head
								{
									OFFSET 0.000000 7.031097 3.806800
									CHANNELS 3 Xrotation Yrotation Zrotation
									JOINT HeadTop_End
									{
										OFFSET 0.000000 24.646606 12.978600
										CHANNELS 3 Xrotation Yrotation Zrotation
										End Site
										{
											OFFSET 0 0 0
										}
									}
								}
							}
						}
						JOINT LeftShoulder_virtual
						{
							OFFSET 0.000000 0.000000 0.000000
							CHANNELS 3 Xrotation Yrotation Zrotation
							JOINT LeftShoulder
							{
								OFFSET 8.476499 7.247704 -3.868750
								CHANNELS 3 Xrotation Yrotation Zrotation
								JOINT LeftShoulder_split
								{
									OFFSET 8.476499 7.247704 -3.868750
									CHANNELS 3 Xrotation Yrotation Zrotation
									JOINT LeftArm
									{
										OFFSET 9.308998 -2.777710 0.208600
										CHANNELS 3 Xrotation Yrotation Zrotation
										JOINT LeftForeArm
										{
											OFFSET 29.972298 0.000000 0.000000
											CHANNELS 3 Xrotation Yrotation Zrotation
											JOINT LeftHand
											{
												OFFSET 26.026505 0.000000 0.000000
												CHANNELS 3 Xrotation Yrotation Zrotation
												End Site
												{
													OFFSET 0 0 0
												}
											}
										}
									}
								}
							}
						}
						JOINT RightShoulder_virtual
						{
							OFFSET 0.000000 0.000000 0.000000
							CHANNELS 3 Xrotation Yrotation Zrotation
							JOINT RightShoulder
							{
								OFFSET -7.570500 7.247704 -3.868750
								CHANNELS 3 Xrotation Yrotation Zrotation
								JOINT RightShoulder_split
								{
									OFFSET -7.570500 7.247704 -3.868750
									CHANNELS 3 Xrotation Yrotation Zrotation
									JOINT RightArm
									{
										OFFSET -9.308998 -2.777710 0.208500
										CHANNELS 3 Xrotation Yrotation Zrotation
										JOINT RightForeArm
										{
											OFFSET -29.972300 0.000000 0.000000
											CHANNELS 3 Xrotation Yrotation Zrotation
											JOINT RightHand
											{
												OFFSET -26.026505 0.000000 0.000000
												CHANNELS 3 Xrotation Yrotation Zrotation
												End Site
												{
													OFFSET 0 0 0
												}
											}
										}
									}
								}
							}
						}
					}
				}
			}
		}
	}
}
MOTION
Frames: 4
Frame Time: 0.03333333
1.995683 94.693710 -0.783207 0.000000 0.000000 0.000000 -0.892950 1.581738 -5.498630 -17.244100 10.909844 17.844935 21.219016 8.461887 2.059532 -2.355608 4.172006 -10.927842 -0.419547 -0.000007 -0.000001 0.000000 0.000000 0.000000 -0.892950 1.581738 -5.498630 1.132873 -4.297033 10.254864 10.319408 -4.637724 3.785812 -10.482985 0.532053 -7.622003 -0.524594 -0.000003 0.000001 0.000000 0.000000 0.000000 -0.892950 1.581738 -5.498630 1.300964 -1.198397 3.156389 0.728744 0.264195 5.944687 0.000000 0.000000 0.000000 0.000000 0.000000 0.000000 0.710789 0.781493 5.851998 1.045309 -0.304693 -2.163987 1.584932 0.544179 -8.140494 0.000000 0.000000 0.000000 0.710789 0.781493 5.851998 3.582358 -13.764038 -5.044455 0.000000 0.000000 0.000000 4.032787 3.514250 -83.678348 -0.000002 -14.506748 0.000019 0.000000 0.000000 0.000000 0.710789 0.781493 5.851998 4.508130 3.324375 5.471580 0.000000 0.000000 0.000000 -1.219627 0.655869 67.345392 -0.000003 17.736784 -0.000005 0.000000 0.000000 0.000000 
1.745529 94.781235 -0.793137 0.000000 0.000000 0.000000 -0.792865 1.686248 -5.759384 -17.386182 10.708870 18.272255 21.057707 8.618152 2.109566 -2.142424 3.952231 -11.157481 -0.419546 -0.000002 0.000001 0.000000 0.000000 0.000000 -0.792865 1.686248 -5.759384 1.339225 -4.028977 10.657230 9.659424 -4.860558 3.920805 -10.173986 0.450201 -7.867662 -0.510300 -0.000004 -0.000004 0.000000 0.000000 0.000000 -0.792865 1.686248 -5.759384 1.229549 -1.206257 3.248011 0.883787 0.274246 5.935621 0.000000 0.000000 0.000000 0.000000 0.000000 0.000000 0.874438 0.782059 5.804659 0.823466 -0.344953 -1.909929 0.389958 0.303444 -7.738951 0.000000 0.000000 0.000000 0.874438 0.782059 5.804659 3.574452 -13.651339 -4.988284 0.000000 0.000000 0.000000 3.522157 3.255676 -83.224632 0.000005 -14.517248 0.000023 0.000000 0.000000 0.000000 0.874438 0.782059 5.804659 4.449801 3.381858 5.730767 0.000000 0.000000 0.000000 -1.131087 1.840466 67.077082 0.000004 17.687979 -0.000012 0.000000 0.000000 0.000000 
1.510671 94.794357 -0.790173 0.000000 0.000000 0.000000 -0.700134 1.810334 -6.026422 -17.623370 10.474035 18.694136 21.100442 8.691353 2.180256 -2.031441 3.808278 -11.389354 -0.419547 -0.000003 0.000001 0.000000 0.000000 0.000000 -0.700134 1.810334 -6.026422 1.453761 -3.765552 11.059972 9.234596 -5.101085 4.026747 -10.004667 0.376516 -8.073700 -0.526969 0.000001 0.000001 0.000000 0.000000 0.000000 -0.700134 1.810334 -6.026422 1.158748 -1.249352 3.321572 1.050319 0.266991 5.907281 0.000000 0.000000 0.000000 0.000000 0.000000 0.000000 1.049970 0.762834 5.735964 0.563218 -0.377230 -1.640714 -0.891138 0.058435 -7.280996 0.000000 0.000000 0.000000 1.049970 0.762834 5.735964 3.562879 -13.544198 -4.938705 0.000000 0.000000 0.000000 2.983159 2.951938 -82.727859 0.000003 -14.534477 0.000008 0.000000 0.000000 0.000000 1.049970 0.762834 5.735964 4.366723 3.471357 6.080082 0.000000 0.000000 0.000000 -1.020835 3.112629 66.763091 0.000000 17.420848 -0.000004 0.000000 0.000000 0.000000 
1.271660 94.752373 -0.781708 0.000000 0.000000 0.000000 -0.615412 1.944811 -6.314938 -17.936949 10.203322 19.139763 21.296656 8.705010 2.272666 -1.987544 3.719942 -11.640667 -0.419551 -0.000021 -0.000001 0.000000 0.000000 0.000000 -0.615412 1.944811 -6.314938 1.469150 -3.516204 11.487874 9.029427 -5.349400 4.117617 -9.898745 0.309127 -8.265791 -0.570937 0.000005 -0.000001 0.000000 0.000000 0.000000 -0.615412 1.944811 -6.314938 1.091218 -1.328418 3.382946 1.232320 0.241031 5.854369 0.000000 0.000000 0.000000 0.000000 0.000000 0.000000 1.241433 0.721577 5.640133 0.259063 -0.402470 -1.354239 -2.262397 -0.210804 -6.744987 0.000000 0.000000 0.000000 1.241433 0.721577 5.640133 3.545848 -13.448695 -4.903268 0.000000 0.000000 0.000000 2.410661 2.590256 -82.167852 0.000002 -14.558668 -0.000002 0.000000 0.000000 0.000000 1.241433 0.721577 5.640133 4.249134 3.601341 6.547299 0.000000 0.000000 0.000000 -0.880251 4.489442 66.384589 -0.000001 16.863168 0.000008 0.000000 0.000000 0.000000 
